# xmcd
#
# Track frame offsets:
#	150
#	19242
#	35274
#	49249
#	58252
#	70983
#	86800
#	99378
#	116437
#	127754
#	143118
#	155832
#	165156
#	172773
#	181683
#	196443
#	206791
#	217669
#	232983
#	247505
#	258635
#	281459
#	295403
#
# Disc length: 4147 seconds
#
# Revision: 3
# Processed by: cddbd v1.5.2PL0 Copyright (c) Steve Scherf et al.
# Submitted via: EZCDAudioConverter 7.1.8.1
#
DISCID=3d103117
DTITLE=Various Artist - Легенди от България - Странджа
DYEAR=2000
DGENRE=Folklore
TTITLE0=Обредни Странджански танци
TTITLE1=ГЕОРГИ ГЕРМАНОВ - Една е Манда
TTITLE2=ЯНКА РУПКИНА - Калиманку Денку мари
TTITLE3=КОМНА СТОЯНОВА - Марулче, марулче
TTITLE4=Странджанската група - Странджанска ръченица
TTITLE5=ПЕТКО ДУНАКОВ - Мари Марийко
TTITLE6=ДИМКА ВЛАДИМИРОВА - Ой, Чобан
TTITLE7=ТАНЯ ВЕЛИЧКОВА и МАНОЛ МИХАЙЛОВ - Малка мома двори мете
TTITLE8=ИВАН БОГОЕВ (кавал) - Факйско хоро
TTITLE9=ЖИВКА ПАПАНЧЕВА - Мари земи ме, Кирилку
TTITLE10=ТОМА ЯНЧЕВ - Като рекла Яна
TTITLE11=ВАНЯ ДЖЕНЕЗОВА - Станку ле
TTITLE12=Група "КОЛЕДАРИ" гр. Средец - Сяла мома жълта ружа
TTITLE13=Женска фолкл. група гр. Ахтопол - Седнала е Яна
TTITLE14=КОСТАДИН ВАРИМЕЗОВ (гайда) - Кукерски игри
TTITLE15=ГЕОРГИ ПАВЛОВ - Тодор събира, тръгнува
TTITLE16=КАЛИНКА ЗГУРОВА - Събрали са се
TTITLE17=МАГДА ПУШКАРОВА - Капитан Петко Войвода
TTITLE18=ПЕТКО ДАЧЕВ (акордеон) - Бавна мелодия и Странджанска ръченица
TTITLE19=ИВАН ПОЛИНЧЕВ - Мене ме майка проводи
TTITLE20=ГЕОРГИ КРЪСТЕВ - Сипко ле, осипнице ле
TTITLE21=Инстр. група ''БАЛКАНА'' - Странджанско на пояс
TTITLE22=САВА ПОПСАВОВ - Ясен месец веч изгрява
EXTD=
EXTT0=
EXTT1=
EXTT2=
EXTT3=
EXTT4=
EXTT5=
EXTT6=
EXTT7=
EXTT8=
EXTT9=
EXTT10=
EXTT11=
EXTT12=
EXTT13=
EXTT14=
EXTT15=
EXTT16=
EXTT17=
EXTT18=
EXTT19=
EXTT20=
EXTT21=
EXTT22=
PLAYORDER=
